OFF
402 800 0
   0.0000000000000000        0.0000000000000000        1.1100423215650579     
  0.19238022744919944        0.0000000000000000        1.2146409524509132     
   0.0000000000000000       0.17454501608287876        1.1020338596722563     
 -0.15446853650043152        0.0000000000000000       0.97527595629923736     
   0.0000000000000000      -0.17007578582399865        1.0738162503558206     
  0.39741931405529463        0.0000000000000000        1.2231308802234615     
  0.27282166428983440       0.27282166428983434        1.1874567846183042     
   0.0000000000000000       0.33792686510966274        1.0400319495172510     
 -0.20876954669307710       0.20876954669307715       0.90866982755085945     
 -0.27876782230380198        0.0000000000000000       0.85795913739860730     
 -0.20822318967491166      -0.20822318967491160       0.90629180764641670     
   0.0000000000000000      -0.32815980641731474        1.0099720337731870     
  0.26045681951769895      -0.26045681951769906        1.1336387755036541     
  0.56546864451670176        0.0000000000000000        1.1097947022622368     
  0.48938578679784656       0.28254701574531343        1.1090594828017635     
  0.26202558226558520       0.45384162136681200        1.0285083209310835     
   0.0000000000000000       0.47713481327873242       0.93642979708307894     
 -0.21783931971123802       0.37730876962610482       0.85506747475474254     
 -0.34810628707366059       0.20097925854857904       0.78888800843215456     
 -0.39182342394500008        0.0000000000000000       0.76899676813745577     
 -0.35386031220709946      -0.20430134650829374       0.80192793789205141     
 -0.21766052868181796      -0.37699909447921109       0.85436568044948169     
   0.0000000000000000      -0.47273788905194952       0.92780034740368478     
  0.25699222410125960      -0.44512358929350848        1.0087512777085321     
  0.46899084088390447      -0.27077198823179149        1.0628398974004614     
  0.66810641615160360        0.0000000000000000       0.91956959214185729     
  0.62419892959833068       0.25855166225839732       0.92992223687573183     
  0.45959177718118754       0.45959177718118749       0.89459446541853793     
  0.23623680284085297       0.57032609335004603       0.84966329054417944     
   0.0000000000000000       0.59483126951242171       0.81871500508781325     
 -0.21801782942906422       0.52634160064679103       0.78413585064809443     
 -0.37975735526127075       0.37975735526127080       0.73919692450193908     
 -0.47203008479279662       0.19552126296929848       0.70322336599587265     
 -0.50589878514816555        0.0000000000000000       0.69630994146626568     
 -0.48265940913243305      -0.19992407326963818       0.71905877454544020     
 -0.38342633500561379      -0.38342633500561363       0.74633858615905768     
 -0.21584599612766495      -0.52109833123533833       0.77632450623778348     
   0.0000000000000000      -0.60298216742649524       0.82993375361235022     
  0.24617454405568592      -0.59431792297024955       0.88540595976265746     
  0.46454752636852226      -0.46454752636852248       0.90424082119579630     
  0.60522646037648165      -0.25069300819500179       0.90165733576609552     
  0.72140758250498227        0.0000000000000000       0.72140758250498238     
  0.69677869899343137       0.22639712321850539       0.73263648064547959     
  0.58154128419946127       0.42251447476176063       0.71882455899305864     
  0.41104733348818395       0.56575811827102163       0.69931549300534857     
  0.21584366454148662       0.66429849296291121       0.69848477096891171     
   0.0000000000000000       0.70590952748746971       0.70590952748746982     
 -0.21586203615187433       0.66435503496575321       0.69854422274898276     
 -0.39481459059927082       0.54341566443906464       0.67169870128489906     
 -0.51970097812065263       0.37758486245063788       0.64238573693025780     
 -0.59400431046733149       0.19300370011808238       0.62457309349109869     
 -0.62219656251408550        0.0000000000000000       0.62219656251408562     
 -0.60273756300452375      -0.19584130587959173       0.63375577862868926     
 -0.52233086354515679      -0.37949558605532130       0.64563645408798065     
 -0.38402756292100410      -0.52856859456707594       0.65334671365643204     
 -0.20905720700226693      -0.64341192431871574       0.67652333304558065     
   0.0000000000000000      -0.71910545654061975       0.71910545654061986     
  0.23365879683503069      -0.71912783233535160       0.75613575009897260     
  0.44912963939125294      -0.61817391560585866       0.76410498160605944     
  0.59910282063249753      -0.43527367783747728       0.74053181181363070     
  0.68142619192553167      -0.22140879128559002       0.71649389941623198     
  0.76041775771792630        0.0000000000000000       0.55247584003255013     
  0.74707379422248510       0.20017781984836960       0.56192811941496368     
  0.66209701997440673       0.38226189271187266       0.55545904378199606     
  0.52950051546879207       0.52950051546879195       0.54405452376413543     
  0.37869119001815538       0.65591238149016495       0.55027050905829800     
  0.20439017760370015       0.76279452738503550       0.57375281744369089     
   0.0000000000000000       0.82002490668615691       0.59578296873112058     
 -0.21334015519083516       0.79619629846682638       0.59887670019031314     
 -0.39986107677530836       0.69257970094403398       0.58103215514255668     
 -0.54261116690184141       0.54261116690184152       0.55752553845300723     
 -0.64715566418656678       0.37363549692570530       0.54292415697788243     
 -0.71364101412842762       0.19121953342143982       0.53678091255219318     
 -0.73483753506192540        0.0000000000000000       0.53389072039711927     
 -0.70962392498156057      -0.19014315762861278       0.53375936987825878     
 -0.63578444186363847      -0.36707031865654738       0.53338439454492292     
 -0.51751922827519448      -0.51751922827519392       0.53174391535533516     
 -0.37223365490267946      -0.64472760257849993       0.54088716128333514     
 -0.20251364809479983      -0.75579122391591758       0.56848512745305291     
   0.0000000000000000      -0.82471407684471099       0.59918985027236382     
  0.21906148492644337      -0.81754859172697203       0.61493730101671173     
  0.42364727440179040      -0.73377860375197457       0.61559552345291502     
  0.58481608601148960      -0.58481608601148982       0.60089051449344488     
  0.68151630049348344      -0.39347361954703103       0.57175063649823854     
  0.73126877812513036      -0.19594287854872317       0.55004002610799274     
  0.80843667248285367        0.0000000000000000       0.41191905893460634     
  0.80228341042114248       0.18311595304010017       0.41929645280328987     
  0.73314953508538783       0.35306620788766252       0.41461848429980663     
  0.61965529197618252       0.49415860563116171       0.40383400803852454     
  0.49580218783792052       0.62171627887514613       0.40517716868074066     
  0.36154804691822773       0.75076225531463880       0.42457901624640065     
  0.19738957376976937       0.86482022891204235       0.45197999807200367     
   0.0000000000000000       0.92802815580468234       0.47285396322986661     
 -0.20872305135875560       0.91447543863608183       0.47793124301867906     
 -0.39735296788587410       0.82511193980653819       0.46662603669306835     
 -0.54875340590482147       0.68811500616196886       0.44844971797726985     
 -0.66925289625784756       0.53371137519811018       0.43615713927863259     
 -0.76589005350342376       0.36883321056438911       0.43313424878173457     
 -0.82646090597029676       0.18863430862629124       0.43193230939679239     
 -0.83630701772699967        0.0000000000000000       0.42611970912269476     
 -0.79808664936814933      -0.18215806971617926       0.41710310441801118     
 -0.72141818755828202      -0.34741668867419778       0.40798404848867786     
 -0.61621389606700339      -0.49141418397298303       0.40159122447603945     
 -0.49619126035324729      -0.62220416037784032       0.40549512472054561     
 -0.36308297743632756      -0.75394957137772467       0.42638154095905317     
 -0.19893708697937143      -0.87160032728610004       0.45552347305973578     
   0.0000000000000000      -0.92412760452919385       0.47086653308794724     
  0.20324124243132921      -0.89045806446110287       0.46537907047415161     
  0.38767416161349194      -0.80501369148865842       0.45525986259644291     
  0.55029725065257629      -0.69005092624316244       0.44971137163496300     
  0.67412712732224100      -0.53759844476322760       0.43933371227385759     
  0.74380620296771360      -0.35819818866085135       0.42064515590444956     
  0.78135039464285738      -0.17833812878940078       0.40835625492770022     
  0.86797516031952682        0.0000000000000000       0.28202222542872885     
  0.86730492111176538       0.17251767509836877       0.28732532710225966     
  0.80656595336856296       0.33409055683364414       0.28366161965723208     
  0.70008928208034116       0.46778470292234214       0.27357920662852542     
  0.58572609053375402       0.58572609053375391       0.26914455988183617     
  0.47459588928802576       0.71028294284581162       0.27756266087677617     
  0.34825647717751257       0.84076551038622693       0.29568928050092935     
  0.18892148258797889       0.94977243032551173       0.31464559646009349     
   0.0000000000000000        1.0076104076363466       0.32739246757031665     
 -0.19898217230737220        1.0003509330698430       0.33140150835637200     
 -0.38499187450456157       0.92945260483235326       0.32687969307440240     
 -0.54230886842989534       0.81162257763678236       0.31716391973872315     
 -0.67188488249618650       0.67188488249618661       0.30873502805023895     
 -0.78359352594255971       0.52358045484668025       0.30621079429982329     
 -0.87456429665768842       0.36225639284290151       0.30757599406250508     
 -0.92465788167000651       0.18392588825924100       0.30632551694501514     
 -0.91950057978942024        0.0000000000000000       0.29876384907115972     
 -0.86655692443919896      -0.17236888930943658       0.28707752683803300     
 -0.78296747876749273      -0.32431574860256368       0.27536225926540947     
 -0.68370603871519131      -0.45683776968591561       0.26717700217180096     
 -0.58164238764128817      -0.58164238764128795       0.26726807454945262     
 -0.47977626235186654      -0.71803591902591302       0.28059235027019069     
 -0.35987206127034033      -0.86880801103801553       0.30555156283618495     
 -0.19689009755328407      -0.98983336303813374       0.32791719254526375     
   0.0000000000000000       -1.0160488584939129       0.33013428645963344     
  0.18829099737935823      -0.94660276713701197       0.31359553380015581     
  0.34992225931653065      -0.84478706421820271       0.29710362295953763     
  0.50001292041730927      -0.74832221810374622       0.29242755741520871     
  0.64037445395127968      -0.64037445395128001       0.29425580207845647     
  0.74495467435505880      -0.49776279962217801       0.29111159676471127     
  0.80274983393193733      -0.33250986840735886       0.28231952653307069     
  0.83841487703971984      -0.16677108803829596       0.27775448164647853     
  0.92625493114964375        0.0000000000000000       0.14670436886797827     
  0.93129801246090071       0.16421296667702501       0.14977858777797859     
  0.87799775075991937       0.31956504702928656       0.14798581928206297     
  0.77573711550284452       0.44787203245595103       0.14187192239509677     
  0.66219273777904664       0.55564568203867126       0.13691245606205277     
  0.55867899131650955       0.66580769500835957       0.13765987089249093     
  0.45567648871008926       0.78925483026046028       0.14434413126679474     
  0.33160376124338181       0.91107384622241305       0.15356076874113889     
  0.17685376789243878        1.0029875585792778       0.16130825801498616     
   0.0000000000000000        1.0473399660277951       0.16588235434883125     
 -0.18384645435124883        1.0426450541634149       0.16768628481621145     
 -0.36119546350632364       0.99237637999307093       0.16726424583928046     
 -0.52093147233685300       0.90227977734909093       0.16501487938701836     
 -0.65845475455599700       0.78471581930284817       0.16224486316753819     
 -0.77786422654855703       0.65270558560289460       0.16082825386573105     
 -0.88207936591023217       0.50926875935488736       0.16132049485038952     
 -0.96095806424198915       0.34976013176215331       0.16196871382583033     
 -0.99571197958872903       0.17557088701612922       0.16013814282963107     
 -0.97760162670342921        0.0000000000000000       0.15483688650577895     
 -0.91629303997762124      -0.16156718518343444       0.14736537143034095     
 -0.82941394603195395      -0.30188198824090556       0.13979705781851148     
 -0.73274549943692191      -0.42305081134739375       0.13400933196819589     
 -0.63912378442368034      -0.53628853178653701       0.13214280686104019     
 -0.55462276723438131      -0.66097367538611596       0.13666040735057217     
 -0.46918686213613447      -0.81265548346359817       0.14862379713411397     
 -0.35536391824283442      -0.97635434106110663       0.16456374398051868     
 -0.19219127093288874       -1.0899708607309135       0.17529758901560843     
   0.0000000000000000       -1.0913276230088245       0.17284931478095927     
  0.17570923642485195      -0.99649659807517488       0.16026433127551187     
  0.32003546190431909      -0.87929020500684596       0.14820366141258154     
  0.45337930528825005      -0.78527599185953145       0.14361645504561335     
  0.59090764084158409      -0.70421630386432710       0.14560108901885438     
  0.71718527091977102      -0.60178989631455793       0.14828250340298674     
  0.80496496470906631      -0.46474673906299663       0.14721730431829219     
  0.85488184937559974      -0.31115154698716124       0.14408965257566639     
  0.89229637933050410      -0.15733592646444297       0.14350604187629720     
  0.96583382793947115        0.0000000000000000        0.0000000000000000     
  0.97839923056932621       0.15496321454767967        0.0000000000000000     
  0.93613655897740988       0.30416920637545819        0.0000000000000000     
  0.84291195037177624       0.42948509039740490        0.0000000000000000     
  0.73147376951950938       0.53144680167631508        0.0000000000000000     
  0.62871810329970257       0.62871810329970246        0.0000000000000000     
  0.53588686302938660       0.73758498969165986        0.0000000000000000     
  0.43593555131571388       0.85557169273539957        0.0000000000000000     
  0.31236828388220211       0.96137072483993935        0.0000000000000000     
  0.16345283351957618        1.0320005752121515        0.0000000000000000     
   0.0000000000000000        1.0603681703309631        0.0000000000000000     
 -0.16679314352738023        1.0530904625834105        0.0000000000000000     
 -0.33029620168555984        1.0165471823191652        0.0000000000000000     
 -0.48499508585031087       0.95185645060819279        0.0000000000000000     
 -0.62532922652476841       0.86069184173091440        0.0000000000000000     
 -0.74891999926084896       0.74891999926084907        0.0000000000000000     
 -0.85638029537084392       0.62219670473271083        0.0000000000000000     
 -0.94519316429866229       0.48159997189833753        0.0000000000000000     
  -1.0057868414737612       0.32679995500670894        0.0000000000000000     
  -1.0269448231457112       0.16265208105811349        0.0000000000000000     
  -1.0055079118605792        0.0000000000000000        0.0000000000000000     
 -0.94882099568210410      -0.15027848236927918        0.0000000000000000     
 -0.86895499558568323      -0.28234059320576610        0.0000000000000000     
 -0.77806899455499190      -0.39644595418831041        0.0000000000000000     
 -0.68782155722848415      -0.49973161300536673        0.0000000000000000     
 -0.60690213461974041      -0.60690213461974019        0.0000000000000000     
 -0.53434692261608574      -0.73546544354818943        0.0000000000000000     
 -0.45416926759689902      -0.89135737586325359        0.0000000000000000     
 -0.34067150795138340       -1.0484790916066407        0.0000000000000000     
 -0.18160026402018831       -1.1465789420228505        0.0000000000000000     
   0.0000000000000000       -1.1384325379591227        0.0000000000000000     
  0.16530516033205989       -1.0436957064301453        0.0000000000000000     
  0.30093955820350426      -0.92619672396771979        0.0000000000000000     
  0.42278488056513186      -0.82976204816586852        0.0000000000000000     
  0.54803158138786379      -0.75430076046948258        0.0000000000000000     
  0.67299840160520719      -0.67299840160520752        0.0000000000000000     
  0.77564908376433817      -0.56354204616318448        0.0000000000000000     
  0.84234246430750648      -0.42919492275452725        0.0000000000000000     
  0.88552911902740605      -0.28772585235977810        0.0000000000000000     
  0.92629319624654827      -0.14671042946393564        0.0000000000000000     
  0.97370775369722395        0.0000000000000000      -0.15422015760899596     
  0.99376597259456856       0.17522775347841141      -0.15982517085343029     
  0.93898481479428275       0.34176252301308169      -0.15826514019025567     
  0.82453571120137781       0.47604591481857489      -0.15079653157464346     
  0.70021776778852773       0.58755247069513183      -0.14477436688259732     
  0.59123550731122521       0.70460703990741280      -0.14568187611946512     
  0.48350220485774131       0.83745038438518338      -0.15315845222414498     
  0.35028861698652564       0.96241006546246777      -0.16221344747124664     
  0.18390305664080706        1.0429660616991345      -0.16773791174413630     
   0.0000000000000000        1.0665645056415980      -0.16892722229605994     
 -0.18468347170078192        1.0473920154405265      -0.16844972803933553     
 -0.36357040433214943       0.99890147628456827      -0.16836404560500368     
 -0.53210478623648927       0.92163252471217649      -0.16855423752414650     
 -0.68286229810627219       0.81380359701528826      -0.16825894163864008     
 -0.81024445528853373       0.67987582359604515      -0.16752306700957481     
 -0.91159302179589563       0.52630847652524515      -0.16671814698502019     
 -0.98181736315432333       0.35735229567390431      -0.16548453198882584     
  -1.0130792073348633       0.17863319784788137      -0.16293127543662611     
  -1.0016714282310413        0.0000000000000000      -0.15864916854945210     
 -0.95113303786960823      -0.16771041681961776      -0.15296861079371107     
 -0.86950641687708874      -0.31647445424672010      -0.14655461174154150     
 -0.76928678253186256      -0.44414793097879207      -0.14069224293875324     
 -0.66742322906472984      -0.56003458534736350      -0.13799389257966793     
 -0.57551268404705269      -0.68586930879661123      -0.14180773398372612     
 -0.48565270317050308      -0.84117515672447707      -0.15383966316751613     
 -0.36885294973458110       -1.0134151504949931      -0.17081031379528511     
 -0.20083960986003890       -1.1390180280583524      -0.18318573583705577     
   0.0000000000000000       -1.1504123372802719      -0.18220741418257722     
  0.18671682746105189       -1.0589237489965626      -0.17030435109612804     
  0.34125442467051553      -0.93758882607121896      -0.15802984740651874     
  0.48083041003528593      -0.83282270000529290      -0.15231211076891205     
  0.61721204644093675      -0.73556467373841083      -0.15208255894164047     
  0.73457313948176894      -0.61638005041188948      -0.15187755308367565     
  0.81341106164950583      -0.46962309540516106      -0.14876198225844534     
  0.86502101076396909      -0.31484189993294887      -0.14579860012546586     
  0.91775992468655543      -0.16182583653520857      -0.14760128723516097     
  0.94450587920448037        0.0000000000000000      -0.30688856336131382     
  0.97177251023956224       0.19329757056622426      -0.32193389842138925     
  0.90447531237038370       0.37464594121545458      -0.31809541547772935     
  0.77513686097563428       0.51792989196774031      -0.30290611909396969     
  0.64576336470389628       0.64576336470389617      -0.29673203804642173     
  0.52746883881282569       0.78941290379374884      -0.30848487678665842     
  0.38810649849485629       0.93697197231141505      -0.32952418352059637     
  0.20654833114651072        1.0383885822055403      -0.34400282043713987     
   0.0000000000000000        1.0644041332998997      -0.34584586766085329     
 -0.20515500540610848        1.0313838606854215      -0.34168225952132208     
 -0.39821635563339325       0.96137932652892577      -0.33810801922550265     
 -0.57306556935570785       0.85765323348293243      -0.33515166877204605     
 -0.71974516558581569       0.71974516558581580      -0.33072710768637043     
 -0.83208179283077532       0.55597927897111554      -0.32515892266803886     
 -0.91045288944180236       0.37712193470856675      -0.32019767281530098     
 -0.95591208107904979       0.19014273505424972      -0.31667957219124993     
 -0.96659512597669650        0.0000000000000000      -0.31406579471255602     
 -0.93700379969489755      -0.18638164404104704      -0.31041553747704703     
 -0.86261564279547676      -0.35730709836107155      -0.30337376547459705     
 -0.75324926459135177      -0.50330506762836269      -0.29435293679695762     
 -0.63397454891221994      -0.63397454891221972      -0.29131500833055668     
 -0.51897158758989537      -0.77669586864669504      -0.30351534436379413     
 -0.39012877596017131      -0.94185418199505866      -0.33124121050466965     
 -0.21553021752649740       -1.0835435743174326      -0.35896200326089045     
   0.0000000000000000       -1.1249209855101983      -0.36550898489799516     
  0.20978344354308842       -1.0546525905183215      -0.34939084648739388     
  0.38727190808496792      -0.93495709282483552      -0.32881556945600526     
  0.53954770657931328      -0.80749020689954953      -0.31554908183629482     
  0.66499544968623736      -0.66499544968623758      -0.30556929343223760     
  0.74990252816208824      -0.50106884983958278      -0.29304510718072369     
  0.80711421731734423      -0.33431765519699019      -0.28385443890414103     
  0.87130746413431381      -0.17331383040652326      -0.28865131056574600     
  0.88004268839923283        0.0000000000000000      -0.44840414638090453     
  0.90604634444268162       0.20679916561409215      -0.47352595524913343     
  0.82320131942063623       0.39643286160184754      -0.46554552243156394     
  0.68532938478014815       0.54653194698131768      -0.44663430759981482     
  0.55260131392755529       0.69294013020545098      -0.45159428755812214     
  0.41115765955556033       0.85377767743172539      -0.48283738801596959     
  0.22423085557243350       0.98241956827708699      -0.51344080507272383     
   0.0000000000000000        1.0244044786941369      -0.52196015247073602     
 -0.22442103683073622       0.98325280681243177      -0.51387627956673798     
 -0.42699062890094619       0.88665517704869312      -0.50143061955524493     
 -0.59569366718096450       0.74697623204177666      -0.48681002099234899     
 -0.72109778175270856       0.57505629172991723      -0.46994484056480629     
 -0.80653201193154089       0.38840534620200107      -0.45611851924230168     
 -0.86465556389195597       0.19735199005347401      -0.45189393938260997     
 -0.89977994484111978        0.0000000000000000      -0.45846078084124381     
 -0.89573302456425707      -0.20444521765254300      -0.46813591678457250     
 -0.82906561304546700      -0.39925695656880072      -0.46886195982647166     
 -0.70612518515916434      -0.56311604438409413      -0.46018708690497412     
 -0.56256804630308654      -0.70543801730046574      -0.45973925445011271     
 -0.41128148333923703      -0.85403480016793432      -0.48298279878698452     
 -0.22712875728274939      -0.99511610524515914      -0.52007638153416902     
   0.0000000000000000       -1.0597935491566102      -0.53999178450531771     
  0.23047474307529422       -1.0097758268494081      -0.52773797491613694     
  0.42438625205370240      -0.88124713280065425      -0.49837220513657238     
  0.56956641409933884      -0.71421369294534265      -0.46545842818235744     
  0.66281043835418718      -0.52857368646094560      -0.43195854107323745     
  0.72449620981950558      -0.34889898607132713      -0.40972476421380044     
  0.79623437207236747      -0.18173529951065673      -0.41613505087279118     
  0.78845836528702273        0.0000000000000000      -0.57284853394260760     
  0.79733519404710451       0.21364532134183414      -0.59973334575409132     
  0.69444298223650935       0.40093684273109509      -0.58259533457667523     
  0.55182421005356186       0.55182421005356175      -0.56699181404272958     
  0.40794475217400511       0.70658103744647083      -0.59277842306204398     
  0.22803699160655735       0.85104563868082972      -0.64013284762308942     
   0.0000000000000000       0.91710935092606816      -0.66631894627918109     
 -0.23544303126068727       0.87868535495291278      -0.66092267308082642     
 -0.43847954229504377       0.75946884533456271      -0.63714807027534948     
 -0.58824827976159888       0.58824827976159888      -0.60441704653945927     
 -0.68505468283065096       0.39551650554188994      -0.57471912360850208     
 -0.75106569788838096       0.20124744721190949      -0.56493071827094032     
 -0.80119936825646443        0.0000000000000000      -0.58210541444934960     
 -0.81244152290723304      -0.21769304996050459      -0.61109590596338170     
 -0.74404808450845472      -0.42957636188098142      -0.62421099186470819     
 -0.60315298873204604      -0.60315298873204537      -0.61973143076358073     
 -0.43242114315041980      -0.74897539020354076      -0.62834470101494744     
 -0.23618804988732170      -0.88146580232009775      -0.66301404821974497     
   0.0000000000000000      -0.95389667569037306      -0.69304650221199338     
  0.24350239586639705      -0.90876331313814540      -0.68354647625740539     
  0.43812348641624160      -0.75885213846214306      -0.63663069079875689     
  0.56010971273075549      -0.56010971273075572      -0.57550505450519862     
  0.63297924426229624      -0.36545073706628306      -0.53103100473911891     
  0.70749029525367690      -0.18957145326607991      -0.53215451296882144     
  0.68089930765569529        0.0000000000000000      -0.68089930765569517     
  0.65841655058117587       0.21393250560955365      -0.69230013074937069     
  0.53496967638621906       0.38867822108785344      -0.66125888591443072     
  0.38668624206937324       0.53222795247922505      -0.65786992878984973     
  0.21780178373579204       0.67032496417105192      -0.70482137778973097     
   0.0000000000000000       0.75166869878563003      -0.75166869878562992     
 -0.23405358698870282       0.72034287149194698      -0.75741331787310273     
 -0.42635752823070561       0.58683079351352130      -0.72536275207285483     
 -0.55031039876539023       0.39982390830664494      -0.68022106159903861     
 -0.62493791680209643       0.20305463809176252      -0.65709861201156139     
 -0.67715021365600025        0.0000000000000000      -0.67715021365600014     
 -0.68526016782991295      -0.22265452557180532      -0.72052518024832835     
 -0.60259128336340761      -0.43780819436884477      -0.74484378888600966     
 -0.44257466131807999      -0.60915176229685797      -0.75295298681270983     
 -0.24120022772895944      -0.74233797004434021      -0.78054033311934201     
   0.0000000000000000      -0.81349958274916312      -0.81349958274916301     
  0.24721226462165566      -0.76084111701388246      -0.79999569318734443     
  0.43074299718210635      -0.59286687369101709      -0.73282375748987860     
  0.53657485750423672      -0.38984445343524465      -0.66324299889249971     
  0.61547171596123884      -0.19997888299007147      -0.64714525942034717     
  0.56488927562516755        0.0000000000000000      -0.77750338603853786     
  0.50772440345090353       0.21030633385715330      -0.75640022849331612     
  0.36757487954269152       0.36757487954269141      -0.71548376013729398     
  0.20388377809305336       0.49221898222011584      -0.73330048366691436     
   0.0000000000000000       0.57146959685037957      -0.78656042120381242     
 -0.22322879146307673       0.53892197586231527      -0.80287790563477035     
 -0.39479495635908524       0.39479495635908529      -0.76846758464687259     
 -0.49170274901033661       0.20366994729621543      -0.73253140714591436     
 -0.54139920599722224        0.0000000000000000      -0.74517207889202508     
 -0.53235832165596420      -0.22051003687207885      -0.79309947168971928     
 -0.42601988216748721      -0.42601988216748710      -0.82924683962533652     
 -0.23984747184646044      -0.57904301943262282      -0.86264963675051853     
   0.0000000000000000      -0.65302258375387900      -0.89880847793821150     
  0.24517910253735395      -0.59191471455614320      -0.88182569578245062     
  0.41711425907886968      -0.41711425907886990      -0.81191206228218171     
  0.51712843422587140      -0.21420161094511936      -0.77041021300183465     
  0.44012518014035262        0.0000000000000000      -0.86379430228080256     
  0.35560287870377910       0.20530741774423267      -0.80587698984593104     
  0.19673520753911922       0.34075537509536202      -0.77222917023802251     
   0.0000000000000000       0.41093718272140300      -0.80650963191171487     
 -0.20948692769656707       0.36284200229196217      -0.82228249012656096     
 -0.35083865752452514       0.20255679336391147      -0.79508018123489699     
 -0.40685959355885692        0.0000000000000000      -0.79850691258416806     
 -0.37439709491113260      -0.21615826353075612      -0.84846895771442576     
 -0.23050033940773640      -0.39923829901606966      -0.90476477528825150     
   0.0000000000000000      -0.48627446996529589      -0.95436738331283821     
  0.24066946158159216      -0.41685173528956349      -0.94468082730860148     
  0.39488436175197555      -0.22798659255627690      -0.89489776333054172     
  0.30228325944400097        0.0000000000000000      -0.93033221115447728     
  0.19563834371364835       0.19563834371364833      -0.85151624296031281     
   0.0000000000000000       0.27316839621839223      -0.84072587591791215     
 -0.19425023210696971       0.19425023210696973      -0.84547448469507891     
 -0.27648822298375797        0.0000000000000000      -0.85094325209995203     
 -0.20968746105324684      -0.20968746105324676      -0.91266505145479448     
   0.0000000000000000      -0.31962029649231549      -0.98369012466147232     
  0.22648424009930448      -0.22648424009930460      -0.98577306246958907     
  0.15223927960254124        0.0000000000000000      -0.96120098218357841     
   0.0000000000000000       0.14159600321351626      -0.89400197976126705     
 -0.14341188124099435        0.0000000000000000      -0.90546698240772183     
   0.0000000000000000      -0.15567020744568785      -0.98286300804998594     
   0.0000000000000000        0.0000000000000000      -0.94915004606171960     
           3           0           1           2
           3           0           2           3
           3           0           3           4
           3           0           4           1
           3           1           5           6
           3           6           2           1
           3           2           6           7
           3           2           7           8
           3           8           3           2
           3           3           8           9
           3           3           9          10
           3          10           4           3
           3           4          10          11
           3           4          11          12
           3          12           1           4
           3           1          12           5
           3           5          13          14
           3          14           6           5
           3           6          14          15
           3          15           7           6
           3           7          15          16
           3           7          16          17
           3          17           8           7
           3           8          17          18
           3          18           9           8
           3           9          18          19
           3           9          19          20
           3          20          10           9
           3          10          20          21
           3          21          11          10
           3          11          21          22
           3          11          22          23
           3          23          12          11
           3          12          23          24
           3          24           5          12
           3           5          24          13
           3          13          25          26
           3          26          14          13
           3          14          26          27
           3          27          15          14
           3          15          27          28
           3          28          16          15
           3          16          28          29
           3          16          29          30
           3          30          17          16
           3          17          30          31
           3          31          18          17
           3          18          31          32
           3          32          19          18
           3          19          32          33
           3          19          33          34
           3          34          20          19
           3          20          34          35
           3          35          21          20
           3          21          35          36
           3          36          22          21
           3          22          36          37
           3          22          37          38
           3          38          23          22
           3          23          38          39
           3          39          24          23
           3          24          39          40
           3          40          13          24
           3          13          40          25
           3          25          41          42
           3          42          26          25
           3          26          42          43
           3          43          27          26
           3          27          43          44
           3          44          28          27
           3          28          44          45
           3          45          29          28
           3          29          45          46
           3          29          46          47
           3          47          30          29
           3          30          47          48
           3          48          31          30
           3          31          48          49
           3          49          32          31
           3          32          49          50
           3          50          33          32
           3          33          50          51
           3          33          51          52
           3          52          34          33
           3          34          52          53
           3          53          35          34
           3          35          53          54
           3          54          36          35
           3          36          54          55
           3          55          37          36
           3          37          55          56
           3          37          56          57
           3          57          38          37
           3          38          57          58
           3          58          39          38
           3          39          58          59
           3          59          40          39
           3          40          59          60
           3          60          25          40
           3          25          60          41
           3          41          61          62
           3          62          42          41
           3          42          62          63
           3          63          43          42
           3          43          63          64
           3          64          44          43
           3          44          64          65
           3          65          45          44
           3          45          65          66
           3          66          46          45
           3          46          66          67
           3          46          67          68
           3          68          47          46
           3          47          68          69
           3          69          48          47
           3          48          69          70
           3          70          49          48
           3          49          70          71
           3          71          50          49
           3          50          71          72
           3          72          51          50
           3          51          72          73
           3          51          73          74
           3          74          52          51
           3          52          74          75
           3          75          53          52
           3          53          75          76
           3          76          54          53
           3          54          76          77
           3          77          55          54
           3          55          77          78
           3          78          56          55
           3          56          78          79
           3          56          79          80
           3          80          57          56
           3          57          80          81
           3          81          58          57
           3          58          81          82
           3          82          59          58
           3          59          82          83
           3          83          60          59
           3          60          83          84
           3          84          41          60
           3          41          84          61
           3          61          85          86
           3          86          62          61
           3          62          86          87
           3          87          63          62
           3          63          87          88
           3          88          64          63
           3          64          88          89
           3          89          65          64
           3          65          89          90
           3          90          66          65
           3          66          90          91
           3          91          67          66
           3          67          91          92
           3          67          92          93
           3          93          68          67
           3          68          93          94
           3          94          69          68
           3          69          94          95
           3          95          70          69
           3          70          95          96
           3          96          71          70
           3          71          96          97
           3          97          72          71
           3          72          97          98
           3          98          73          72
           3          73          98          99
           3          73          99         100
           3         100          74          73
           3          74         100         101
           3         101          75          74
           3          75         101         102
           3         102          76          75
           3          76         102         103
           3         103          77          76
           3          77         103         104
           3         104          78          77
           3          78         104         105
           3         105          79          78
           3          79         105         106
           3          79         106         107
           3         107          80          79
           3          80         107         108
           3         108          81          80
           3          81         108         109
           3         109          82          81
           3          82         109         110
           3         110          83          82
           3          83         110         111
           3         111          84          83
           3          84         111         112
           3         112          61          84
           3          61         112          85
           3          85         113         114
           3         114          86          85
           3          86         114         115
           3         115          87          86
           3          87         115         116
           3         116          88          87
           3          88         116         117
           3         117          89          88
           3          89         117         118
           3         118          90          89
           3          90         118         119
           3         119          91          90
           3          91         119         120
           3         120          92          91
           3          92         120         121
           3          92         121         122
           3         122          93          92
           3          93         122         123
           3         123          94          93
           3          94         123         124
           3         124          95          94
           3          95         124         125
           3         125          96          95
           3          96         125         126
           3         126          97          96
           3          97         126         127
           3         127          98          97
           3          98         127         128
           3         128          99          98
           3          99         128         129
           3          99         129         130
           3         130         100          99
           3         100         130         131
           3         131         101         100
           3         101         131         132
           3         132         102         101
           3         102         132         133
           3         133         103         102
           3         103         133         134
           3         134         104         103
           3         104         134         135
           3         135         105         104
           3         105         135         136
           3         136         106         105
           3         106         136         137
           3         106         137         138
           3         138         107         106
           3         107         138         139
           3         139         108         107
           3         108         139         140
           3         140         109         108
           3         109         140         141
           3         141         110         109
           3         110         141         142
           3         142         111         110
           3         111         142         143
           3         143         112         111
           3         112         143         144
           3         144          85         112
           3          85         144         113
           3         113         145         146
           3         146         114         113
           3         114         146         147
           3         147         115         114
           3         115         147         148
           3         148         116         115
           3         116         148         149
           3         149         117         116
           3         117         149         150
           3         150         118         117
           3         118         150         151
           3         151         119         118
           3         119         151         152
           3         152         120         119
           3         120         152         153
           3         153         121         120
           3         121         153         154
           3         121         154         155
           3         155         122         121
           3         122         155         156
           3         156         123         122
           3         123         156         157
           3         157         124         123
           3         124         157         158
           3         158         125         124
           3         125         158         159
           3         159         126         125
           3         126         159         160
           3         160         127         126
           3         127         160         161
           3         161         128         127
           3         128         161         162
           3         162         129         128
           3         129         162         163
           3         129         163         164
           3         164         130         129
           3         130         164         165
           3         165         131         130
           3         131         165         166
           3         166         132         131
           3         132         166         167
           3         167         133         132
           3         133         167         168
           3         168         134         133
           3         134         168         169
           3         169         135         134
           3         135         169         170
           3         170         136         135
           3         136         170         171
           3         171         137         136
           3         137         171         172
           3         137         172         173
           3         173         138         137
           3         138         173         174
           3         174         139         138
           3         139         174         175
           3         175         140         139
           3         140         175         176
           3         176         141         140
           3         141         176         177
           3         177         142         141
           3         142         177         178
           3         178         143         142
           3         143         178         179
           3         179         144         143
           3         144         179         180
           3         180         113         144
           3         113         180         145
           3         145         181         182
           3         182         146         145
           3         146         182         183
           3         183         147         146
           3         147         183         184
           3         184         148         147
           3         148         184         185
           3         185         149         148
           3         149         185         186
           3         186         150         149
           3         150         186         187
           3         187         151         150
           3         151         187         188
           3         188         152         151
           3         152         188         189
           3         189         153         152
           3         153         189         190
           3         190         154         153
           3         154         190         191
           3         154         191         192
           3         192         155         154
           3         155         192         193
           3         193         156         155
           3         156         193         194
           3         194         157         156
           3         157         194         195
           3         195         158         157
           3         158         195         196
           3         196         159         158
           3         159         196         197
           3         197         160         159
           3         160         197         198
           3         198         161         160
           3         161         198         199
           3         199         162         161
           3         162         199         200
           3         200         163         162
           3         163         200         201
           3         163         201         202
           3         202         164         163
           3         164         202         203
           3         203         165         164
           3         165         203         204
           3         204         166         165
           3         166         204         205
           3         205         167         166
           3         167         205         206
           3         206         168         167
           3         168         206         207
           3         207         169         168
           3         169         207         208
           3         208         170         169
           3         170         208         209
           3         209         171         170
           3         171         209         210
           3         210         172         171
           3         172         210         211
           3         172         211         212
           3         212         173         172
           3         173         212         213
           3         213         174         173
           3         174         213         214
           3         214         175         174
           3         175         214         215
           3         215         176         175
           3         176         215         216
           3         216         177         176
           3         177         216         217
           3         217         178         177
           3         178         217         218
           3         218         179         178
           3         179         218         219
           3         219         180         179
           3         180         219         220
           3         220         145         180
           3         145         220         181
           3         221         182         181
           3         222         182         221
           3         222         183         182
           3         223         183         222
           3         223         184         183
           3         224         184         223
           3         224         185         184
           3         225         185         224
           3         225         186         185
           3         226         186         225
           3         226         187         186
           3         227         187         226
           3         227         188         187
           3         228         188         227
           3         228         189         188
           3         229         189         228
           3         229         190         189
           3         230         190         229
           3         230         191         190
           3         230         192         191
           3         231         192         230
           3         231         193         192
           3         232         193         231
           3         232         194         193
           3         233         194         232
           3         233         195         194
           3         234         195         233
           3         234         196         195
           3         235         196         234
           3         235         197         196
           3         236         197         235
           3         236         198         197
           3         237         198         236
           3         237         199         198
           3         238         199         237
           3         238         200         199
           3         239         200         238
           3         239         201         200
           3         239         202         201
           3         240         202         239
           3         240         203         202
           3         241         203         240
           3         241         204         203
           3         242         204         241
           3         242         205         204
           3         243         205         242
           3         243         206         205
           3         244         206         243
           3         244         207         206
           3         245         207         244
           3         245         208         207
           3         246         208         245
           3         246         209         208
           3         247         209         246
           3         247         210         209
           3         248         210         247
           3         248         211         210
           3         248         212         211
           3         249         212         248
           3         249         213         212
           3         250         213         249
           3         250         214         213
           3         251         214         250
           3         251         215         214
           3         252         215         251
           3         252         216         215
           3         253         216         252
           3         253         217         216
           3         254         217         253
           3         254         218         217
           3         255         218         254
           3         255         219         218
           3         256         219         255
           3         256         220         219
           3         221         220         256
           3         221         181         220
           3         257         222         221
           3         258         222         257
           3         258         223         222
           3         259         223         258
           3         259         224         223
           3         260         224         259
           3         260         225         224
           3         261         225         260
           3         261         226         225
           3         262         226         261
           3         262         227         226
           3         263         227         262
           3         263         228         227
           3         264         228         263
           3         264         229         228
           3         265         229         264
           3         265         230         229
           3         265         231         230
           3         266         231         265
           3         266         232         231
           3         267         232         266
           3         267         233         232
           3         268         233         267
           3         268         234         233
           3         269         234         268
           3         269         235         234
           3         270         235         269
           3         270         236         235
           3         271         236         270
           3         271         237         236
           3         272         237         271
           3         272         238         237
           3         273         238         272
           3         273         239         238
           3         273         240         239
           3         274         240         273
           3         274         241         240
           3         275         241         274
           3         275         242         241
           3         276         242         275
           3         276         243         242
           3         277         243         276
           3         277         244         243
           3         278         244         277
           3         278         245         244
           3         279         245         278
           3         279         246         245
           3         280         246         279
           3         280         247         246
           3         281         247         280
           3         281         248         247
           3         281         249         248
           3         282         249         281
           3         282         250         249
           3         283         250         282
           3         283         251         250
           3         284         251         283
           3         284         252         251
           3         285         252         284
           3         285         253         252
           3         286         253         285
           3         286         254         253
           3         287         254         286
           3         287         255         254
           3         288         255         287
           3         288         256         255
           3         257         256         288
           3         257         221         256
           3         289         258         257
           3         290         258         289
           3         290         259         258
           3         291         259         290
           3         291         260         259
           3         292         260         291
           3         292         261         260
           3         293         261         292
           3         293         262         261
           3         294         262         293
           3         294         263         262
           3         295         263         294
           3         295         264         263
           3         296         264         295
           3         296         265         264
           3         296         266         265
           3         297         266         296
           3         297         267         266
           3         298         267         297
           3         298         268         267
           3         299         268         298
           3         299         269         268
           3         300         269         299
           3         300         270         269
           3         301         270         300
           3         301         271         270
           3         302         271         301
           3         302         272         271
           3         303         272         302
           3         303         273         272
           3         303         274         273
           3         304         274         303
           3         304         275         274
           3         305         275         304
           3         305         276         275
           3         306         276         305
           3         306         277         276
           3         307         277         306
           3         307         278         277
           3         308         278         307
           3         308         279         278
           3         309         279         308
           3         309         280         279
           3         310         280         309
           3         310         281         280
           3         310         282         281
           3         311         282         310
           3         311         283         282
           3         312         283         311
           3         312         284         283
           3         313         284         312
           3         313         285         284
           3         314         285         313
           3         314         286         285
           3         315         286         314
           3         315         287         286
           3         316         287         315
           3         316         288         287
           3         289         288         316
           3         289         257         288
           3         317         290         289
           3         318         290         317
           3         318         291         290
           3         319         291         318
           3         319         292         291
           3         320         292         319
           3         320         293         292
           3         321         293         320
           3         321         294         293
           3         322         294         321
           3         322         295         294
           3         323         295         322
           3         323         296         295
           3         323         297         296
           3         324         297         323
           3         324         298         297
           3         325         298         324
           3         325         299         298
           3         326         299         325
           3         326         300         299
           3         327         300         326
           3         327         301         300
           3         328         301         327
           3         328         302         301
           3         329         302         328
           3         329         303         302
           3         329         304         303
           3         330         304         329
           3         330         305         304
           3         331         305         330
           3         331         306         305
           3         332         306         331
           3         332         307         306
           3         333         307         332
           3         333         308         307
           3         334         308         333
           3         334         309         308
           3         335         309         334
           3         335         310         309
           3         335         311         310
           3         336         311         335
           3         336         312         311
           3         337         312         336
           3         337         313         312
           3         338         313         337
           3         338         314         313
           3         339         314         338
           3         339         315         314
           3         340         315         339
           3         340         316         315
           3         317         316         340
           3         317         289         316
           3         341         318         317
           3         342         318         341
           3         342         319         318
           3         343         319         342
           3         343         320         319
           3         344         320         343
           3         344         321         320
           3         345         321         344
           3         345         322         321
           3         346         322         345
           3         346         323         322
           3         346         324         323
           3         347         324         346
           3         347         325         324
           3         348         325         347
           3         348         326         325
           3         349         326         348
           3         349         327         326
           3         350         327         349
           3         350         328         327
           3         351         328         350
           3         351         329         328
           3         351         330         329
           3         352         330         351
           3         352         331         330
           3         353         331         352
           3         353         332         331
           3         354         332         353
           3         354         333         332
           3         355         333         354
           3         355         334         333
           3         356         334         355
           3         356         335         334
           3         356         336         335
           3         357         336         356
           3         357         337         336
           3         358         337         357
           3         358         338         337
           3         359         338         358
           3         359         339         338
           3         360         339         359
           3         360         340         339
           3         341         340         360
           3         341         317         340
           3         361         342         341
           3         362         342         361
           3         362         343         342
           3         363         343         362
           3         363         344         343
           3         364         344         363
           3         364         345         344
           3         365         345         364
           3         365         346         345
           3         365         347         346
           3         366         347         365
           3         366         348         347
           3         367         348         366
           3         367         349         348
           3         368         349         367
           3         368         350         349
           3         369         350         368
           3         369         351         350
           3         369         352         351
           3         370         352         369
           3         370         353         352
           3         371         353         370
           3         371         354         353
           3         372         354         371
           3         372         355         354
           3         373         355         372
           3         373         356         355
           3         373         357         356
           3         374         357         373
           3         374         358         357
           3         375         358         374
           3         375         359         358
           3         376         359         375
           3         376         360         359
           3         361         360         376
           3         361         341         360
           3         377         362         361
           3         378         362         377
           3         378         363         362
           3         379         363         378
           3         379         364         363
           3         380         364         379
           3         380         365         364
           3         380         366         365
           3         381         366         380
           3         381         367         366
           3         382         367         381
           3         382         368         367
           3         383         368         382
           3         383         369         368
           3         383         370         369
           3         384         370         383
           3         384         371         370
           3         385         371         384
           3         385         372         371
           3         386         372         385
           3         386         373         372
           3         386         374         373
           3         387         374         386
           3         387         375         374
           3         388         375         387
           3         388         376         375
           3         377         376         388
           3         377         361         376
           3         389         378         377
           3         390         378         389
           3         390         379         378
           3         391         379         390
           3         391         380         379
           3         391         381         380
           3         392         381         391
           3         392         382         381
           3         393         382         392
           3         393         383         382
           3         393         384         383
           3         394         384         393
           3         394         385         384
           3         395         385         394
           3         395         386         385
           3         395         387         386
           3         396         387         395
           3         396         388         387
           3         389         388         396
           3         389         377         388
           3         397         390         389
           3         398         390         397
           3         398         391         390
           3         398         392         391
           3         399         392         398
           3         399         393         392
           3         399         394         393
           3         400         394         399
           3         400         395         394
           3         400         396         395
           3         397         396         400
           3         397         389         396
           3         401         398         397
           3         401         399         398
           3         401         400         399
           3         401         397         400
